<svg width="26" height="28" viewBox="0 0 26 28" fill="none" xmlns="http://www.w3.org/2000/svg">
	<path d="M13 27.9898C12.1615 27.2593 11.2138 26.4994 10.2115 25.691H10.1985C6.66901 22.8557 2.66891 19.6476 0.902214 15.8034C0.322415 14.5799 0.0143149 13.2491 1.49209e-05 11.8979C-0.00191129 10.9809 0.18268 10.0728 0.54295 9.22685C0.903219 8.3809 1.4319 7.61419 2.09796 6.97175C2.76402 6.32931 3.55402 5.82407 4.42159 5.48572C5.28915 5.14737 6.21678 4.98272 7.15001 5.00143C8.68482 5.00382 10.1866 5.43959 11.4764 6.25685C12.0432 6.61824 12.5559 7.05538 13 7.5557C13.4472 7.05761 13.9594 6.62084 14.5249 6.25685C15.8142 5.43943 17.3156 5.00363 18.85 5.00143C19.7832 4.98272 20.7109 5.14737 21.5784 5.48572C22.446 5.82407 23.236 6.32931 23.902 6.97175C24.5681 7.61419 25.0968 8.3809 25.4571 9.22685C25.8173 10.0728 26.0019 10.9809 26 11.8979C25.9867 13.2502 25.6791 14.584 25.0978 15.8098C23.3311 19.654 19.3323 22.8608 15.8028 25.691L15.7898 25.7012C14.7862 26.5045 13.8398 27.2644 13.0013 28L13 27.9898ZM7.15001 7.5557C5.93907 7.54081 4.7711 7.99611 3.90001 8.82261C3.4846 9.22347 3.15546 9.70228 2.93213 10.2306C2.70881 10.7589 2.59586 11.3259 2.60001 11.8979C2.61431 12.8813 2.84181 13.8519 3.26561 14.7434C4.0996 16.402 5.22487 17.9031 6.58971 19.1776C7.87801 20.4547 9.36 21.691 10.6418 22.7306C10.9967 23.0179 11.3581 23.3078 11.7195 23.5977L11.947 23.7804C12.2941 24.0588 12.6529 24.3474 13 24.6309L13.0169 24.6156L13.0247 24.6092H13.0325L13.0442 24.6003H13.0572L13.0806 24.5811L13.1339 24.539L13.143 24.5313L13.1573 24.5211H13.1651L13.1768 24.5109L14.04 23.8148L14.2662 23.6322C14.6315 23.3397 14.9929 23.0498 15.3478 22.7625C16.6296 21.7229 18.1129 20.4879 19.4012 19.2044C20.7663 17.9306 21.8916 16.4299 22.7253 14.7715C23.1569 13.8724 23.3883 12.8915 23.4013 11.8979C23.4038 11.3275 23.2899 10.7624 23.0664 10.236C22.8429 9.70954 22.5143 9.23243 22.1 8.83283C21.2306 8.00259 20.0624 7.54354 18.85 7.5557C18.1185 7.54959 17.394 7.69562 16.7241 7.98419C16.0542 8.27276 15.454 8.69733 14.963 9.23001L13 11.4522L11.037 9.23001C10.546 8.69733 9.94582 8.27276 9.2759 7.98419C8.60597 7.69562 7.88147 7.54959 7.15001 7.5557Z" fill="#9B87E0" />
</svg>
