<svg class="icon icon-pdf" width="30" height="30" viewBox="0 0 30 30" fill="none" xmlns="http://www.w3.org/2000/svg">
	<g clip-path="url(#clip0_393_1985)">
		<path class="color1" d="M18.3308 27.8616H7.22653C6.10837 27.8603 5.03637 27.414 4.24571 26.6204C3.45505 25.8269 3.0103 24.751 3.00903 23.6288V4.23282C3.0103 3.1106 3.45505 2.03471 4.24571 1.24117C5.03637 0.447643 6.10837 0.0012763 7.22653 0H21.3204C22.4386 0.0012763 23.5106 0.447643 24.3012 1.24117C25.0919 2.03471 25.5366 3.1106 25.5379 4.23282V13.1239H23.6694V4.23282C23.6687 3.60779 23.421 3.00855 22.9806 2.56659C22.5403 2.12462 21.9432 1.87601 21.3204 1.8753H7.22653C6.60375 1.87601 6.00669 2.12462 5.56632 2.56659C5.12596 3.00855 4.87825 3.60779 4.87754 4.23282V23.6288C4.87825 24.2538 5.12596 24.8531 5.56632 25.295C6.00669 25.737 6.60375 25.9856 7.22653 25.9863H16.6225L18.3308 27.8616Z" />
		<path class="color1" d="M26.6057 23.7359V15.2971C26.6057 15.2021 26.5871 15.108 26.5509 15.0202C26.5147 14.9324 26.4617 14.8526 26.3947 14.7854C26.3278 14.7183 26.2483 14.665 26.1608 14.6286C26.0734 14.5923 25.9796 14.5737 25.8849 14.5737H20.0125C19.9178 14.5737 19.8241 14.5923 19.7366 14.6286C19.6491 14.665 19.5696 14.7183 19.5027 14.7854C19.4358 14.8526 19.3827 14.9324 19.3465 15.0202C19.3103 15.108 19.2917 15.2021 19.2918 15.2971V23.7359C19.2918 23.7715 19.2777 23.8055 19.2527 23.8307C19.2277 23.8558 19.1937 23.8699 19.1583 23.8699H16.8627C16.8363 23.8698 16.8104 23.8777 16.7884 23.8924C16.7664 23.9071 16.7493 23.928 16.7392 23.9525C16.7291 23.9771 16.7264 24.004 16.7316 24.03C16.7368 24.0561 16.7495 24.0799 16.7682 24.0987L22.4415 29.7905C22.5085 29.8577 22.588 29.9111 22.6754 29.9475C22.7629 29.9838 22.8567 30.0026 22.9514 30.0026C23.0461 30.0026 23.1398 29.9838 23.2273 29.9475C23.3148 29.9111 23.3943 29.8577 23.4612 29.7905L29.1271 24.0987C29.1458 24.0799 29.1585 24.0561 29.1637 24.03C29.1689 24.004 29.1662 23.9771 29.1561 23.9525C29.146 23.928 29.1288 23.9071 29.1069 23.8924C29.0849 23.8777 29.059 23.8698 29.0326 23.8699H26.737C26.702 23.8693 26.6686 23.855 26.644 23.8299C26.6194 23.8048 26.6057 23.7711 26.6057 23.7359Z" />
		<path class="color1" d="M16.3289 4.98291H1.32748C0.870477 4.98291 0.5 5.35473 0.5 5.8134V14.279C0.5 14.7377 0.870477 15.1095 1.32748 15.1095H16.3289C16.7859 15.1095 17.1564 14.7377 17.1564 14.279V5.8134C17.1564 5.35473 16.7859 4.98291 16.3289 4.98291Z" />
		<path class="color2" d="M4.40151 10.7514H3.50783V13.0613H2.31519V6.92419H4.40258C5.6737 6.92419 6.42057 7.79487 6.42057 8.83754C6.42057 9.8802 5.67263 10.7514 4.40151 10.7514ZM4.34385 7.99312H3.50783V9.67392H4.34385C4.88519 9.67392 5.22846 9.33744 5.22846 8.83754C5.22846 8.33764 4.88252 7.99312 4.34385 7.99312Z" />
		<path class="color2" d="M10.6967 12.1627C10.2584 12.7746 9.68241 13.0591 8.85012 13.0591H6.92822V6.92419H8.85012C9.68241 6.92419 10.2563 7.2087 10.6967 7.82273C11.0742 8.34835 11.0833 8.97792 11.0833 9.99487C11.0833 11.0118 11.0704 11.6392 10.6967 12.1627ZM9.63809 8.37246C9.44057 8.12224 9.14855 7.99312 8.74495 7.99312H8.11766V11.9923H8.74495C9.14855 11.9923 9.43897 11.8632 9.63809 11.613C9.86125 11.3451 9.88687 10.9582 9.88687 9.99272C9.88687 9.02721 9.86125 8.63929 9.63809 8.37246Z" />
		<path class="color2" d="M12.7434 7.99312V9.50139H14.8735V10.5703H12.7434V13.0613H11.5508V6.92419H15.2953V7.99312H12.7434Z" />
	</g>
	<defs>
		<clipPath id="clip0_393_1985">
			<rect width="28.6667" height="30" fill="white" transform="translate(0.5)" />
		</clipPath>
	</defs>
</svg>