<svg width="29" height="30" viewBox="0 0 29 30" fill="none" xmlns="http://www.w3.org/2000/svg">
	<g clip-path="url(#clip0_765_1401)">
		<path d="M28.0443 4.08002C28.0418 3.26569 27.7322 2.48527 27.1829 1.90851C26.6335 1.33175 25.8888 1.00521 25.1107 0.999939H4.25095C3.46944 1.00582 2.72134 1.33263 2.16778 1.90997C1.61754 2.48538 1.30829 3.26597 1.30788 4.08002V25.92C1.30661 26.3248 1.38181 26.7259 1.52927 27.1002C1.67673 27.4744 1.89354 27.8145 2.16708 28.1008C2.44063 28.387 2.76558 28.6139 3.12322 28.7682C3.48087 28.9226 3.8641 29.0013 4.25095 28.9999H25.1298C25.9077 28.9995 26.6536 28.6759 27.2034 28.1C27.7525 27.5197 28.0614 26.7366 28.0634 25.92L28.0443 4.08002Z" stroke="#3E3E3E" stroke-width="2" stroke-miterlimit="10" />
		<path d="M18.355 10.71L22.4543 15L18.355 19.29" stroke="#3E3E3E" stroke-width="2" stroke-miterlimit="10" />
		<path d="M22.4544 15H5.72266" stroke="#3E3E3E" stroke-width="2" stroke-miterlimit="10" />
	</g>
	<defs>
		<clipPath id="clip0_765_1401">
			<rect width="28.6667" height="30" fill="white" transform="translate(0.333252)" />
		</clipPath>
	</defs>
</svg>
