<svg viewBox="0 0 33 33" fill="none" xmlns="http://www.w3.org/2000/svg">
	<path d="M3.45024 11.0001H6V22.0001H3.45024C3.06561 22.0001 2.69674 21.8184 2.42476 21.495C2.15279 21.1716 2 20.733 2 20.2757V12.7244C2 12.498 2.03751 12.2738 2.11039 12.0646C2.18327 11.8553 2.2901 11.6652 2.42476 11.5051C2.55943 11.345 2.7193 11.218 2.89526 11.1313C3.07121 11.0447 3.25979 11.0001 3.45024 11.0001V11.0001Z" stroke-width="2" stroke-miterlimit="10" />
	<path d="M6 21.5544L18 31.0001V2.00006L6 11.4458" stroke-width="2" stroke-linecap="round" stroke-linejoin="round" />
	<path d="M28 8.00006C28.9511 9.11572 29.7054 10.4408 30.2202 11.8993C30.735 13.3578 31 14.9212 31 16.5001C31 18.079 30.735 19.6423 30.2202 21.1008C29.7054 22.5594 28.9511 23.8844 28 25.0001" stroke-width="2" stroke-linecap="round" stroke-linejoin="round" />
	<path d="M25 11.0001C25.634 11.7217 26.1371 12.579 26.4803 13.5227C26.8235 14.4665 27 15.4783 27 16.5001C27 17.5219 26.8235 18.5336 26.4803 19.4774C26.1371 20.4212 25.634 21.2785 25 22.0001" stroke-width="2" stroke-linecap="round" stroke-linejoin="round" />
	<path d="M22 14.0001C22.6403 14.6632 23 15.5624 23 16.5001C23 17.4377 22.6403 18.3369 22 19.0001" stroke-width="2" stroke-linecap="round" stroke-linejoin="round" />
</svg>
